<svg width="38" height="38" viewBox="0 0 38 38" fill="none" xmlns="http://www.w3.org/2000/svg">
<path d="M32.5819 17.961L7.51076 3.91876C7.29957 3.80209 7.05786 3.75252 6.8178 3.77664C6.57775 3.80076 6.35073 3.89743 6.16698 4.05378C5.98323 4.21013 5.85146 4.41874 5.78922 4.65184C5.72698 4.88494 5.73722 5.13147 5.81857 5.35861L10.5389 18.5992C10.6429 18.8563 10.6429 19.1437 10.5389 19.4008L5.81857 32.6414C5.73722 32.8686 5.72698 33.1151 5.78922 33.3482C5.85146 33.5813 5.98323 33.7899 6.16698 33.9462C6.35073 34.1026 6.57775 34.1993 6.8178 34.2234C7.05786 34.2475 7.29957 34.1979 7.51076 34.0813L32.5819 20.0391C32.7675 19.9364 32.9222 19.7858 33.0299 19.6031C33.1376 19.4204 33.1945 19.2121 33.1945 19C33.1945 18.7879 33.1376 18.5796 33.0299 18.3969C32.9222 18.2142 32.7675 18.0636 32.5819 17.961V17.961Z" stroke="white" stroke-width="3" stroke-linecap="round" stroke-linejoin="round"/>
<path d="M10.6875 19H20.1875" stroke="white" stroke-width="3" stroke-linecap="round" stroke-linejoin="round"/>
</svg>
